Coordinates
version=1
nRows=11
nColumns=63
inDegrees=yes

Units are S.I. units (second, meters, Newtons, ...)
If the header above contains a line with 'inDegrees', this indicates whether rotational values are in degrees (yes) or radians (no).

endheader
time	pelvis_tilt	pelvis_list	pelvis_rotation	pelvis_tx	pelvis_ty	pelvis_tz	hip_flexion_r	hip_adduction_r	hip_rotation_r	knee_angle_r	knee_angle_r_beta	ankle_angle_r	subtalar_angle_r	mtp_angle_r	hip_flexion_l	hip_adduction_l	hip_rotation_l	knee_angle_l	knee_angle_l_beta	ankle_angle_l	subtalar_angle_l	mtp_angle_l	L5_S1_Flex_Ext	L5_S1_Lat_Bending	L5_S1_axial_rotation	L4_L5_Flex_Ext	L4_L5_Lat_Bending	L4_L5_axial_rotation	L3_L4_Flex_Ext	L3_L4_Lat_Bending	L3_L4_axial_rotation	L2_L3_Flex_Ext	L2_L3_Lat_Bending	L2_L3_axial_rotation	L1_L2_Flex_Ext	L1_L2_Lat_Bending	L1_L2_axial_rotation	L1_T12_Flex_Ext	L1_T12_Lat_Bending	L1_T12_axial_rotation	Abs_r3	Abs_r2	Abs_r1	Abs_t1	Abs_t2	neck_flexion	neck_bending	neck_rotation	arm_flex_r	arm_add_r	arm_rot_r	elbow_flex_r	pro_sup_r	wrist_flex_r	wrist_dev_r	arm_flex_l	arm_add_l	arm_rot_l	elbow_flex_l	pro_sup_l	wrist_flex_l	wrist_dev_l
     22.80000000	      2.09688070	      3.11696400	    185.51234444	     -2.49041524	      0.85403887	      0.78378049	     -2.75019180	      2.86829971	    -17.49794266	      5.38891230	      0.09405426	     16.39193895	      9.74324864	      0.00000000	      2.31631261	     -3.26389732	    -11.03133212	     12.33873897	      0.21535162	     20.61332591	     16.76101324	      0.00000000	      0.00925682	      0.16474111	     -1.29130162	      0.01719084	      0.21910568	     -1.37200797	      0.01520802	      0.40055154	     -1.37200797	      0.01057962	      0.40055154	     -1.12988892	      0.00859588	      0.33594007	     -1.04918256	      0.00528935	      0.25518398	     -0.96847621	      0.06612052	      1.86358440	     -7.18183221	      0.00000000	      0.00000000	     -0.00000000	      0.00000000	      0.00000000	    -14.04240745	    -14.42597435	     20.69529748	     27.86261258	     44.21357948	      0.00000000	      5.00000014	     -4.96479370	    -13.09859663	     23.78434780	     23.51029044	     52.76824132	      0.00000000	      5.00000014
     22.83333333	      2.19458847	      3.49665758	    186.08247482	     -2.48965505	      0.85341587	      0.78383561	     -2.49689945	      3.33329068	    -17.66708504	      5.51079061	      0.09618144	     16.44623600	      8.87952765	      0.00000000	      4.42998470	     -4.22155857	    -11.29707394	     16.37539262	      0.28580452	     22.30564474	     16.60617292	      0.00000000	      0.00934321	      0.19852466	     -1.40026367	      0.01735127	      0.26403780	     -1.48778015	      0.01534995	      0.48269286	     -1.48778015	      0.01067835	      0.48269286	     -1.22523071	      0.00867610	      0.40483149	     -1.13771423	      0.00533871	      0.30751470	     -1.05019775	      0.06673758	      2.24575065	     -7.78784644	      0.00000000	      0.00000000	     -0.00000000	      0.00000000	      0.00000000	    -13.99208444	    -14.41458037	     20.48212674	     27.93069069	     44.36592132	      0.00000000	      5.00000014	     -4.93622396	    -13.04955805	     23.53266938	     23.48883765	     52.24874044	      0.00000000	      5.00000014
     22.86666667	      2.27129848	      3.85090475	    186.56575605	     -2.48913004	      0.85284055	      0.78403332	     -2.32800081	      3.65565568	    -19.64717964	      5.60017850	      0.09774155	     16.81598948	     10.81486920	      0.00000000	      6.04015486	     -4.81579774	    -10.16958262	     19.24456784	      0.33588107	     23.22532900	     15.07558553	      0.00000000	      0.00855279	      0.23072857	     -1.49874670	      0.01588339	      0.30686900	     -1.59241837	      0.01405138	      0.56099345	     -1.59241837	      0.00977499	      0.56099345	     -1.31140337	      0.00794212	      0.47050170	     -1.21773170	      0.00488707	      0.35739856	     -1.12406003	      0.06109174	      2.61004775	     -8.33557955	      0.00000000	      0.00000000	     -0.00000000	      0.00000000	      0.00000000	    -13.92083268	    -14.67405647	     21.21352841	     28.20818252	     44.80783600	      0.00000000	      5.00000014	     -5.05245661	    -12.99127268	     22.80475832	     23.69827126	     53.11556542	      0.00000000	      5.00000014
     22.90000000	      2.36354212	      4.16441913	    186.73650968	     -2.48871772	      0.85237326	      0.78398082	     -2.09606337	      3.94871154	    -20.43387054	      5.78216435	      0.10091781	     17.07212234	     11.48548104	      0.00000000	      7.12152690	     -5.32431615	     -9.90067567	     21.02988177	      0.36704068	     23.65010187	     14.47340527	      0.00000000	      0.00927783	      0.25863878	     -1.53507598	      0.01722986	      0.34398958	     -1.63101823	      0.01524255	      0.62885434	     -1.63101823	      0.01060364	      0.62885434	     -1.34319148	      0.00861540	      0.52741621	     -1.24724924	      0.00530135	      0.40063148	     -1.15130699	      0.06627063	      2.92577366	     -8.53763209	      0.00000000	      0.00000000	     -0.00000000	      0.00000000	      0.00000000	    -13.92661202	    -14.79931971	     21.37070498	     28.47704514	     45.10793327	      0.00000000	      5.00000014	     -5.17734993	    -12.85867886	     21.76601398	     23.87894072	     53.48521147	      0.00000000	      5.00000014
     22.93333333	      2.42443564	      4.38207455	    186.70404205	     -2.48861489	      0.85206264	      0.78387165	     -2.04472942	      4.25129051	    -19.62582740	      5.66033095	      0.09879141	     17.01290062	     10.42837966	      0.00000000	      7.65493245	     -5.69933270	    -10.08602657	     21.92815515	      0.38271851	     23.90077805	     14.27854273	      0.00000000	      0.00974092	      0.27711603	     -1.53383123	      0.01808986	      0.36856432	     -1.62969568	      0.01600335	      0.67377991	     -1.62969568	      0.01113289	      0.67377991	     -1.34210232	      0.00904542	      0.56509501	     -1.24623787	      0.00556596	      0.42925273	     -1.15037342	      0.06957839	      3.13479194	     -8.53070914	      0.00000000	      0.00000000	     -0.00000000	      0.00000000	      0.00000000	    -13.97076894	    -14.86764293	     21.34909551	     28.73172618	     45.14323849	      0.00000000	      5.00000014	     -5.27911587	    -12.78341469	     21.30710993	     23.99599787	     52.82034992	      0.00000000	      5.00000014
     22.96666667	      2.46784249	      4.42745483	    186.72721332	     -2.48854811	      0.85188516	      0.78409189	     -1.93267428	      4.29479353	    -19.23949992	      5.80705592	      0.10135225	     17.20755095	      9.85271420	      0.00000000	      7.82433059	     -5.72100834	     -9.74110927	     22.27103833	      0.38870295	     24.02095630	     13.11973112	      0.00000000	      0.00976190	      0.27896883	     -1.54346361	      0.01812883	      0.37102854	     -1.63993009	      0.01603783	      0.67828481	     -1.63993009	      0.01115688	      0.67828481	     -1.35053066	      0.00906490	      0.56887323	     -1.25406418	      0.00557795	      0.43212271	     -1.15759771	      0.06972831	      3.15575117	     -8.58428156	      0.00000000	      0.00000000	     -0.00000000	      0.00000000	      0.00000000	    -13.92522809	    -14.86395198	     21.34722873	     28.77181130	     45.15337110	      0.00000000	      5.00000014	     -5.25819369	    -12.73888058	     21.22312601	     23.86305275	     52.61866419	      0.00000000	      5.00000014
     23.00000000	      2.49321530	      4.57069486	    186.63509011	     -2.48853075	      0.85159639	      0.78433654	     -1.91533458	      4.42122189	    -19.36980903	      5.80090679	      0.10124492	     17.40994737	     10.17962977	      0.00000000	      7.95812530	     -5.95257943	     -9.93477976	     22.90183511	      0.39971243	     24.58766356	     11.90441966	      0.00000000	      0.00983141	      0.29501339	     -1.52902586	      0.01825791	      0.39236780	     -1.62458998	      0.01615202	      0.71729555	     -1.62458998	      0.01123632	      0.71729555	     -1.33789763	      0.00912945	      0.60159130	     -1.24233351	      0.00561767	      0.45697573	     -1.14676940	      0.07022478	      3.33725042	     -8.50398313	      0.00000000	      0.00000000	     -0.00000000	      0.00000000	      0.00000000	    -13.92802737	    -15.01859925	     21.45779586	     28.90619988	     45.19160619	      0.00000000	      5.00000014	     -5.19691325	    -12.66979233	     21.24793280	     23.73877342	     52.71083318	      0.00000000	      5.00000014
     23.03333333	      2.53005345	      4.54997290	    186.68654131	     -2.48827168	      0.85142168	      0.78523643	     -1.68812996	      4.16226958	    -20.97851529	      6.31685124	      0.11024985	     17.95637145	     12.28838241	      0.00000000	      7.93556385	     -5.31417543	     -7.13348400	     23.07018122	      0.40265062	     24.55004530	      6.09545811	      0.00000000	      0.00979617	      0.29862498	     -1.54549430	      0.01819247	      0.39717123	     -1.64208770	      0.01609413	      0.72607678	     -1.64208770	      0.01119604	      0.72607678	     -1.35230752	      0.00909672	      0.60895606	     -1.25571412	      0.00559753	      0.46257010	     -1.15912073	      0.06997306	      3.37810553	     -8.59557567	      0.00000000	      0.00000000	     -0.00000000	      0.00000000	      0.00000000	    -13.82428927	    -15.23523034	     22.03121561	     28.98333529	     45.45897442	      0.00000000	      5.00000014	     -5.06649111	    -12.56487813	     21.46421984	     23.54590326	     53.52432491	      0.00000000	      5.00000014
     23.06666667	      2.53055767	      4.46910916	    186.37449347	     -2.48835382	      0.85138511	      0.78523086	     -1.68079091	      4.02825897	    -20.87217194	      6.39324587	      0.11158319	     18.01262961	     12.57439688	      0.00000000	      7.60050732	     -5.25698984	     -7.67347748	     23.08033678	      0.40282787	     25.06178664	      4.57989843	      0.00000000	      0.00825392	      0.29285277	     -1.50034801	      0.01532836	      0.38949418	     -1.59411976	      0.01356037	      0.71204222	     -1.59411976	      0.00943341	      0.71204222	     -1.31280450	      0.00766459	      0.59718537	     -1.21903275	      0.00471629	      0.45362894	     -1.12526100	      0.05895695	      3.31280910	     -8.34448550	      0.00000000	      0.00000000	     -0.00000000	      0.00000000	      0.00000000	    -13.82985572	    -15.29057597	     22.06145741	     29.01128537	     45.48383393	      0.00000000	      5.00000014	     -5.02333494	    -12.55031508	     21.46637577	     23.39558829	     53.62172898	      0.00000000	      5.00000014
     23.10000000	      2.54191684	      4.27976924	    186.30845275	     -2.48824815	      0.85147796	      0.78560390	     -1.57532112	      3.72069481	    -21.11898162	      6.68739208	      0.11671701	     18.12088418	     13.04764262	      0.00000000	      7.16496542	     -4.59642934	     -5.95954320	     22.49172315	      0.39255462	     24.75786128	      0.60999642	      0.00000000	      0.00892408	      0.27589330	     -1.48663487	      0.01657291	      0.36693809	     -1.57954955	      0.01466137	      0.67080696	     -1.57954955	      0.01019933	      0.67080696	     -1.30080551	      0.00828690	      0.56260161	     -1.20789083	      0.00509922	      0.42735872	     -1.11497615	      0.06374381	      3.12096016	     -8.26821717	      0.00000000	      0.00000000	     -0.00000000	      0.00000000	      0.00000000	    -13.80194920	    -15.30020091	     22.25386199	     28.96401439	     45.60354725	      0.00000000	      5.00000014	     -4.92295233	    -12.58993812	     21.67515569	     23.31385689	     54.15328692	      0.00000000	      5.00000014
     23.13333333	      2.51710479	      4.19792369	    186.36410757	     -2.48829981	      0.85170559	      0.78568779	     -1.70348496	      3.68489557	    -20.98814702	      6.49892241	      0.11342759	     17.88146814	     13.05341241	      0.00000000	      6.69768280	     -4.47540255	     -6.13144841	     21.82613788	      0.38093797	     24.90972436	      0.38630353	      0.00000000	      0.00912316	      0.26808910	     -1.49871611	      0.01694262	      0.35655851	     -1.59238586	      0.01498844	      0.65183184	     -1.59238586	      0.01042686	      0.65183184	     -1.31137659	      0.00847177	      0.54668730	     -1.21770684	      0.00521297	      0.41527002	     -1.12403708	      0.06516581	      3.03267755	     -8.33540937	      0.00000000	      0.00000000	     -0.00000000	      0.00000000	      0.00000000	    -13.78394026	    -15.21541638	     22.25418486	     28.78431103	     45.60876652	      0.00000000	      5.00000014	     -4.83455058	    -12.59485926	     21.67448515	     23.12883228	     54.20000656	      0.00000000	      5.00000014
